<?xml version="1.0" encoding="UTF-8" standalone="no"?>
<svg
   xmlns:dc="http://purl.org/dc/elements/1.1/"
   xmlns:cc="http://creativecommons.org/ns#"
   xmlns:rdf="http://www.w3.org/1999/02/22-rdf-syntax-ns#"
   xmlns:svg="http://www.w3.org/2000/svg"
   xmlns="http://www.w3.org/2000/svg"
   xmlns:sodipodi="http://sodipodi.sourceforge.net/DTD/sodipodi-0.dtd"
   xmlns:inkscape="http://www.inkscape.org/namespaces/inkscape"
   id="e1212692-d39e-496f-931d-018692dccc58"
   data-name="Layer 1"
   width="634.01666"
   height="673.71857"
   viewBox="0 0 634.01666 673.71857"
   version="1.1"
   sodipodi:docname="conectandome.svg"
   inkscape:version="0.92.4 (5da689c313, 2019-01-14)"
   inkscape:export-filename="C:\Users\oscar\Dropbox\Nayeli\cuarentena\conectandome.png"
   inkscape:export-xdpi="100"
   inkscape:export-ydpi="100">
  <metadata
     id="metadata73">
    <rdf:RDF>
      <cc:Work
         rdf:about="">
        <dc:format>image/svg+xml</dc:format>
        <dc:type
           rdf:resource="http://purl.org/dc/dcmitype/StillImage" />
        <dc:title>yoga</dc:title>
      </cc:Work>
    </rdf:RDF>
  </metadata>
  <defs
     id="defs71">
    <linearGradient
       gradientUnits="userSpaceOnUse"
       y2="344.92001"
       x2="593"
       y1="777.91998"
       x1="593"
       id="4e52bdea-3ee3-4982-ab0f-41ec51f7690b"
       gradientTransform="matrix(0.55910069,0,0,0.55910069,-1452.0813,-745.38671)">
      <stop
         id="stop75"
         stop-opacity="0.25"
         stop-color="gray"
         offset="0" />
      <stop
         id="stop77"
         stop-opacity="0.12"
         stop-color="gray"
         offset="0.54" />
      <stop
         id="stop79"
         stop-opacity="0.1"
         stop-color="gray"
         offset="1" />
    </linearGradient>
  </defs>
  <sodipodi:namedview
     pagecolor="#ffffff"
     bordercolor="#666666"
     borderopacity="1"
     objecttolerance="10"
     gridtolerance="10"
     guidetolerance="10"
     inkscape:pageopacity="0"
     inkscape:pageshadow="2"
     inkscape:window-width="640"
     inkscape:window-height="480"
     id="namedview69"
     showgrid="false"
     inkscape:zoom="1.2616544"
     inkscape:cx="317.00833"
     inkscape:cy="336.85928"
     inkscape:current-layer="e1212692-d39e-496f-931d-018692dccc58"
     fit-margin-top="0"
     fit-margin-left="0"
     fit-margin-right="0"
     fit-margin-bottom="0" />
  <title
     id="title2">yoga</title>
  <ellipse
     style="opacity:1;fill:#fffff9;fill-opacity:1;stroke:#000000;stroke-width:2;stroke-linejoin:round;stroke-miterlimit:4;stroke-dasharray:none;stroke-opacity:1;paint-order:normal"
     id="path942"
     cx="337.33255"
     cy="370.94128"
     rx="306.36273"
     ry="307.17426" />
  <path
     style="fill:#449af7"
     inkscape:connector-curvature="0"
     d="m 363.97234,642.85818 c -5.685,21.01543 -25.1577,34.03081 -25.1577,34.03081 0,0 -10.2553,-21.05736 -4.5702,-42.07279 5.685,-21.01543 25.1577,-34.03081 25.1577,-34.03081 0,0 10.2553,21.05736 4.5702,42.07279 z"
     id="path284" />
  <path
     style="fill:#449af7"
     inkscape:connector-curvature="0"
     d="m 312.25414,642.85818 c 5.685,21.01543 25.1577,34.03081 25.1577,34.03081 0,0 10.2553,-21.05736 4.5702,-42.07279 -5.685,-21.01543 -25.1577,-34.03081 -25.1577,-34.03081 0,0 -10.2553,21.05736 -4.5702,42.07279 z"
     id="path286" />
  <path
     style="fill:#3f3d56"
     inkscape:connector-curvature="0"
     d="m 320.60794,638.34174 c 15.5999,15.18588 17.5053,38.53012 17.5053,38.53012 0,0 -23.387,-1.27694 -38.987,-16.46283 -15.5999,-15.18589 -17.5053,-38.53012 -17.5053,-38.53012 0,0 23.3871,1.27694 38.987,16.46283 z"
     id="path288" />
  <path
     style="fill:#3f3d56"
     inkscape:connector-curvature="0"
     d="m 355.61854,638.34174 c -15.5999,15.18588 -17.5053,38.53012 -17.5053,38.53012 0,0 23.387,-1.27694 38.9869,-16.46283 15.6,-15.18589 17.5054,-38.53012 17.5054,-38.53012 0,0 -23.3871,1.27694 -38.987,16.46283 z"
     id="path290" />
  <path
     style="fill:#449af7"
     inkscape:connector-curvature="0"
     d="m 312.25414,97.8162 c 5.685,-21.01542 25.1577,-34.03081 25.1577,-34.03081 0,0 10.2553,21.05736 4.5702,42.07279 -5.685,21.01543 -25.1577,34.03079 -25.1577,34.03079 0,0 -10.2553,-21.05734 -4.5702,-42.07277 z"
     id="path292" />
  <path
     style="fill:#449af7"
     inkscape:connector-curvature="0"
     d="m 363.97234,97.8162 c -5.685,-21.01542 -25.1577,-34.03081 -25.1577,-34.03081 0,0 -10.2553,21.05736 -4.5702,42.07279 5.685,21.01543 25.1577,34.03079 25.1577,34.03079 0,0 10.2553,-21.05734 4.5702,-42.07277 z"
     id="path294" />
  <path
     style="fill:#3f3d56"
     inkscape:connector-curvature="0"
     d="m 355.61854,102.33265 c -15.5999,-15.18589 -17.5053,-38.53012 -17.5053,-38.53012 0,0 23.387,1.27694 38.9869,16.46282 15.6,15.18588 17.5054,38.53012 17.5054,38.53012 0,0 -23.3871,-1.27694 -38.987,-16.46282 z"
     id="path296" />
  <path
     style="fill:#3f3d56"
     inkscape:connector-curvature="0"
     d="m 320.60794,102.33265 c 15.5999,-15.18589 17.5053,-38.53012 17.5053,-38.53012 0,0 -23.387,1.27694 -38.987,16.46282 -15.5999,15.18588 -17.5053,38.53012 -17.5053,38.53012 0,0 23.3871,-1.27694 38.987,-16.46282 z"
     id="path298" />
  <g
     id="g1567"
     transform="translate(1241.569,609.02014)">
    <g
       transform="matrix(1.2206317,0,0,1.2206317,54.872263,356.34151)"
       id="g1545">
      <path
         style="fill:#950a1e;fill-opacity:1;stroke-width:0.62580103"
         inkscape:connector-curvature="0"
         d="m -953.39752,-438.87643 c 0,0 -11.6593,-4.16403 -19.15452,12.49208 -7.49522,16.65611 -19.15452,34.97783 -19.15452,34.97783 l 6.66244,1.66561 c 0,0 1.66562,-11.6593 5.82964,-13.32489 l -1.66561,14.9905 c 0,0 49.96833,17.48891 72.45407,-1.66561 l -0.83281,-5.82964 c 0,0 3.33123,0.83281 3.33123,5.82964 l 2.49841,-2.49842 c 0,0 -2.49841,-4.99683 -9.99366,-11.6593 -4.91956,-4.37294 -6.61013,-12.6924 -7.19108,-17.89386 a 21.653686,21.653686 0 0 0 -4.98528,-11.79197 c -4.98099,-5.77263 -14.05702,-11.90814 -27.79831,-5.29197 z"
         id="path42" />
      <circle
         style="fill:#f7c4a7;fill-opacity:1;stroke-width:0.62580103"
         cx="-949.09137"
         cy="-406.02637"
         r="19.6234"
         id="circle48" />
      <path
         style="fill:#950a1e;fill-opacity:1;stroke-width:0.62580103"
         inkscape:connector-curvature="0"
         d="m -972.76295,-402.54124 c 0,0 6.66244,-9.16086 12.49208,-10.82647 5.82964,-1.66561 6.66245,-9.99369 6.66245,-9.99369 0,0 14.99049,16.65611 24.15136,17.48892 9.16086,0.83281 0.8328,-19.98734 0.8328,-19.98734 l -16.65611,-4.16402 -15.8233,1.66561 -12.49208,8.32806 z"
         id="path56" />
    </g>
    <polygon
       transform="matrix(0.55910069,0,0,0.55910069,-1328.9075,-338.22209)"
       id="polygon152"
       points="530.71,647.09 440.14,636.55 281.32,646.14 264.1,652.85 267.93,698.22 535.82,696.62 "
       style="fill:#575988" />
    <polygon
       transform="matrix(0.55910069,0,0,0.55910069,-1328.9075,-338.22209)"
       id="polygon154"
       points="530.71,647.09 440.14,636.55 281.32,646.14 264.1,652.85 267.93,698.22 535.82,696.62 "
       style="opacity:0.05" />
    <path
       id="path156"
       d="m -1082.6964,44.510291 -49.8606,4.66849 c 0,0 34.1611,8.69961 54.1042,4.47281 z"
       inkscape:connector-curvature="0"
       style="fill:#f7c4a7;stroke-width:0.55910069" />
    <path
       id="path158"
       d="m -1082.6964,44.510291 -49.8606,4.66849 c 0,0 34.1611,8.69961 54.1042,4.47281 z"
       inkscape:connector-curvature="0"
       style="opacity:0.1;stroke-width:0.55910069" />
    <path
       id="path160"
       d="m -1120.6761,-134.13915 c 0,0 9.7619,25.6739 -4.6685,37.129871 -14.4303,11.45598 -2.5439,43.49804 -2.5439,43.49804 l 55.5914,-2.5495 c 0,0 5.5128,-36.06759 2.5439,-43.7049 0,0 -13.1556,3.81866 -16.1244,-4.243581 -2.9689,-8.06223 -5.0934,-30.12993 -5.0934,-30.12993 z"
       inkscape:connector-curvature="0"
       style="fill:#f7c4a7;stroke-width:0.55910069" />
    <path
       id="path162"
       d="m -1133.4068,21.173431 c 0,0 -46.8918,-1.06229 -60.6792,-4.47281 -13.7874,-3.41051 -25.6739,12.95996 -20.7929,22.3193 4.8809,9.35935 18.4503,15.69955 18.4503,15.69955 0,0 69.8093,3.39374 84.8715,-6.15011 0,0 5.7308,-16.33692 0,-19.5182 h -72.7726 l 53.6737,-1.06229 z"
       inkscape:connector-curvature="0"
       style="fill:#575988;stroke-width:0.55910069" />
    <path
       id="path164"
       d="m -1058.9346,16.292481 c 0,0 15.7052,3.39374 37.3424,-5.09341 0,0 40.52915,-1.2691598 26.94858,24.60043 -13.58048,25.86959 -88.69008,19.5238 -88.69008,19.5238 0,0 -4.4728,-9.54944 0,-12.09335 4.4728,-2.54391 43.2855,-18.88642 55.3789,-18.03659 l -33.546,6.57503 z"
       inkscape:connector-curvature="0"
       style="fill:#575988;stroke-width:0.55910069" />
    <path
       id="path170"
       d="m -1118.1322,-100.61548 c 0,0 -28.0053,5.305871 -31.399,12.300221 -3.3938,6.99435 -2.9689,30.97977 -2.9689,30.97977 0,0 1.2692,39.24887 -8.4871,44.12982 l -36.4981,25.46144 c 0,0 -25.8808,-22.69949 -32.2489,-9.3369798 -6.3682,13.3625098 30.5548,18.2490498 30.5548,18.2490498 l 41.161,-12.3002198 13.1556,-8.48715004 c 0,0 6.1501,-2.96881996 6.7875,-10.18680996 l 5.5183,-43.7049002 22.0678,-6.36816 h 35.6426 l 4.7747,-13.63087 c 0,0 8.8059,7.05585 7.5311,13.63087 -1.2747,6.57502 2.1246,49.20086 2.1246,49.20086 0,0 2.7564,9.5438502 8.4872,12.3002202 l 33.0987,11.8808898 c 0,0 35.00529,3.39374 37.34233,-11.8808898 2.33704,-15.2746302 -34.37353,2.1749 -34.37353,2.1749 l -26.328,-20.3904002 c 0,0 -2.119,-8.48715 -2.9688,-14.43039 -0.8499,-5.94324 -2.119,-31.3991 -2.119,-31.3991 0,0 8.0622,-26.73619 -15.2802,-31.39909 l -30.13,-9.336981 z"
       inkscape:connector-curvature="0"
       style="fill:#f7c4a7;stroke-width:0.55910069" />
    <path
       id="path172"
       d="m -1136.9068,-95.203379 4.3498,28.74896 c 0,0 -4.4728,13.36809 0,26.52373 4.4729,13.15564 -5.5183,62.17759 -5.5183,62.17759 0,0 52.4101,16.77302 84.4242,-2.5495 0,0 -23.5493,-49.64814 -13.5805,-66.19752 9.9687,-16.54938 0.1677,-23.02377 0.1677,-23.02377 l 1.5319,-30.44303 -7.2124,-2.124581 -4.2435,30.129931 c 0,0 -29.2801,20.36804 -50.9229,2.5495 l -4.6685,-32.679431 z"
       inkscape:connector-curvature="0"
       style="opacity:0.1;stroke-width:0.55910069" />
    <path
       id="path178"
       d="m -1136.9068,-95.203379 4.3498,27.26175 c 0,0 -4.4728,13.3681 0,26.52374 4.4729,13.15563 -5.5183,62.1664 -5.5183,62.1664 0,0 52.4101,16.77302 84.4242,-2.54391 0,0 -23.5493,-49.64814 -13.5805,-66.19752 9.9687,-16.54938 0.1677,-23.02376 0.1677,-23.02376 l 1.5319,-30.448631 -7.2124,-2.11899 -4.2435,30.129941 c 0,0 -29.2801,20.36803 -50.9229,2.5439 l -4.6685,-32.673841 z"
       inkscape:connector-curvature="0"
       style="opacity:0.1;stroke-width:0.55910069" />
    <path
       id="path180"
       d="m -1137.1192,-95.415839 4.5622,27.89913 c 0,0 -4.4728,13.36809 0,26.52373 4.4729,13.15564 -5.5183,62.16641 -5.5183,62.16641 0,0 52.4101,16.77302 84.4242,-2.54391 0,0 -23.5493,-49.65373 -13.5805,-66.20311 9.9687,-16.54938 0.1677,-23.01818 0.1677,-23.01818 l 1.5319,-30.448621 -7.2124,-2.11899 -4.2435,30.129931 c 0,0 -29.2801,20.36804 -50.9229,2.54391 l -4.6685,-32.673841 z"
       inkscape:connector-curvature="0"
       style="fill:#fc6681;stroke-width:0.55910069" />
    <path
       id="path182"
       d="m -1115.5827,31.567111 11.0311,-1.4928 c 0,0 12.7307,-16.33692 21.8552,-3.81866 0,0 3.8187,8.06224 8.4872,9.54385 a 62.686369,62.686369 0 0 0 9.7619,2.12458 l -18.8864,5.30587 c 0,0 -8.2747,4.88095 -16.9743,3.6062 a 32.914258,32.914258 0 0 0 -15.2747,1.27475 z"
       inkscape:connector-curvature="0"
       style="fill:#f7c4a7;stroke-width:0.55910069" />
    <path
       id="path184"
       d="m -1127.7822,-37.705469 c 0,0 19.9431,2.96883 23.3368,-2.33145"
       inkscape:connector-curvature="0"
       style="opacity:0.1;stroke-width:0.55910069" />
    <path
       id="path186"
       d="m -1090.015,-41.099209 c 0,0 3.8187,3.81866 19.0933,1.06229"
       inkscape:connector-curvature="0"
       style="opacity:0.1;stroke-width:0.55910069" />
    <path
       id="path192"
       d="m -1113.9948,29.979261 c 0,0 4.0367,19.00943 0,19.68035 -4.0367,0.67092 -9.7563,-3.13097 -9.7563,-3.55588 0,-0.42492 2.5439,-12.51827 2.5439,-12.51827 z"
       inkscape:connector-curvature="0"
       style="opacity:0.1;stroke-width:0.55910069" />
    <path
       id="path194"
       d="m -1114.4141,29.979261 c 0,0 4.0311,19.00943 0,19.68035 -4.0312,0.67092 -9.7619,-3.13097 -9.7619,-3.55588 0,-0.42492 2.5439,-12.51827 2.5439,-12.51827 z"
       inkscape:connector-curvature="0"
       style="fill:#575988;stroke-width:0.55910069" />
  </g>
  <text
     xml:space="preserve"
     style="font-style:normal;font-weight:normal;font-size:13.48941994px;line-height:1.25;font-family:sans-serif;text-align:end;letter-spacing:0px;word-spacing:0px;text-anchor:end;fill:#000000;fill-opacity:1;stroke:none;stroke-width:0.84308875"
     x="83.686096"
     y="274.61676"
     id="text621"
     transform="scale(0.88011178,1.1362193)"><tspan
       sodipodi:role="line"
       id="tspan619"
       x="83.686096"
       y="274.61676"
       style="font-style:normal;font-variant:normal;font-weight:normal;font-stretch:normal;font-size:71.94358063px;font-family:'Rock Salt';-inkscape-font-specification:'Rock Salt';text-align:start;text-anchor:start;stroke-width:0.84308875">Aquí</tspan><tspan
       sodipodi:role="line"
       x="83.686096"
       y="364.54623"
       id="tspan623"
       style="font-style:normal;font-variant:normal;font-weight:normal;font-stretch:normal;font-size:71.94358063px;font-family:'Rock Salt';-inkscape-font-specification:'Rock Salt';text-align:start;text-anchor:start;stroke-width:0.84308875">  conectando</tspan><tspan
       sodipodi:role="line"
       x="83.686096"
       y="454.47571"
       id="tspan625"
       style="font-style:normal;font-variant:normal;font-weight:normal;font-stretch:normal;font-size:71.94358063px;font-family:'Rock Salt';-inkscape-font-specification:'Rock Salt';text-align:start;text-anchor:start;stroke-width:0.84308875">              .me</tspan></text>
  <g
     id="g1586"
     transform="translate(1151.7327,650.42508)">
    <path
       id="path52"
       d="m -597.61364,-349.74625 16.22702,4.90584 c 0,0 13.20806,-7.92483 13.20806,-0.37735 0,7.54748 -4.52848,17.35915 -3.01899,24.15187 1.5095,6.79272 4.52848,23.39713 0,23.39713 -4.52848,0 -13.58543,-29.4351 -13.58543,-29.4351 l -15.09495,-8.30221 z"
       inkscape:connector-curvature="0"
       style="fill:#f7c4a7;fill-opacity:1;stroke-width:0.62580103" />
    <path
       id="path54"
       d="m -577.23551,-244.08179 -6.03796,23.39713 c 0,0 -5.28323,6.79271 0,9.8117 2.47911,1.41664 4.29349,4.32897 5.52109,7.02137 a 12.908742,12.908742 0 0 0 12.6754,7.66837 c 2.57609,-0.21381 4.74613,-1.2321 5.27397,-3.87897 a 6.0735055,6.0735055 0 0 0 -1.16868,-4.75627 c -5.56743,-7.52331 -6.82949,-12.46984 -6.82949,-12.46984 l 2.26424,-26.41612 z"
       inkscape:connector-curvature="0"
       style="fill:#f7c4a7;fill-opacity:1;stroke-width:0.62580103" />
    <path
       id="path58"
       d="m -604.40636,-407.10697 -3.01898,6.03797 c 0,0 -73.21038,23.39713 -67.17241,45.28477 6.03796,21.88764 40.00154,15.84967 40.00154,15.84967 l 37.73731,6.79272 3.77374,-16.60442 -26.41612,-6.79273 45.28477,-16.60438 1.50949,76.98412 -6.03796,55.09647 15.09494,1.50949 c 0,0 16.60442,-50.56799 14.34018,-71.70089 0,0 27.92561,-86.04107 12.07594,-98.87175 -15.84967,-12.83068 -67.17244,3.01896 -67.17244,3.01896 z"
       inkscape:connector-curvature="0"
       style="fill:#2f2e41;stroke-width:0.62580103" />
    <path
       id="path150"
       d="m -539.48772,-563.30597 c 2.9296,5.13255 6.7092,10.06382 11.7411,11.83617 1.5822,0.5591 3.3546,0.87778 4.4728,2.30349 a 8.2411442,8.2411442 0 0 1 1.3586,3.50556 c 1.8282,8.97916 0.6038,18.9032 4.1932,27.11639 2.9074,6.6477 8.4704,10.97514 12.8929,16.33692 4.4225,5.36177 7.8889,13.37928 5.2108,20.15558 a 13.155639,13.155639 0 0 1 -8.8617,7.70441 c -3.7013,1.00638 -7.5647,0.58705 -11.3218,-0.0783 -4.9536,-0.87779 -9.9967,-2.2364 -14.1229,-5.59101 -7.1397,-5.80346 -10.1589,-16.21392 -13.8937,-25.47821 -1.7555,-4.33863 -4.087,-8.88411 -7.9448,-10.43282 -4.4169,-1.77794 -9.3873,1.19088 -12.2555,5.54628 -2.8681,4.35539 -4.1373,9.82899 -5.5295,15.09571 -1.5654,5.94884 -3.5447,12.12131 -7.6652,16.01265 a 12.898453,12.898453 0 0 1 -13.7763,2.75077 c -4.5846,-1.90653 -8.2076,-6.74275 -9.2643,-12.35053 -1.6214,-8.63811 2.27,-19.00942 -2.5103,-25.84163 -1.8563,-2.64455 -4.69091,-4.08703 -6.6813,-6.5918 -2.488,-3.13656 -3.3937,-7.60377 -3.5894,-11.89207 -0.4193,-9.15807 2.7172,-19.36166 9.7898,-23.15236 1.8898,-1.01198 3.9976,-1.54312 5.6581,-3.01915 5.591,-4.9704 2.9521,-17.17557 8.7388,-21.80492 1.6773,-1.34744 3.7795,-1.72203 5.8034,-2.00718 5.6693,-0.78274 11.2995,-0.87219 16.9967,-0.85542 3.6845,0 7.4808,-1.23002 11.1149,-0.96165 9.7843,0.73242 14.6988,13.37928 19.4456,21.6931 z"
       inkscape:connector-curvature="0"
       style="fill:#000000;fill-opacity:1;stroke-width:0.55910069" />
    <path
       id="path166"
       d="m -552.24083,-526.78551 c -0.8107,-6.04388 -1.286,-10.96955 -1.286,-10.96955 h -29.70499 a 57.872512,57.872512 0 0 1 2.84019,12.00948 23.342454,23.342454 0 0 0 28.1508,-1.03993 z"
       inkscape:connector-curvature="0"
       style="opacity:0.1;fill:#000000;fill-opacity:1;stroke-width:0.55910069" />
    <circle
       id="circle168"
       r="23.336864"
       cy="-546.24219"
       cx="-567.63849"
       style="fill:#f7c4a7;fill-opacity:1;stroke-width:0.55910069" />
    <path
       id="path188"
       d="m -592.04322,-505.29368 c 0,0 14.6428,2.12458 17.3992,0.84984"
       inkscape:connector-curvature="0"
       style="opacity:0.1;fill:#000000;fill-opacity:1;stroke-width:0.55910069" />
    <path
       id="path196"
       d="m -597.30443,-508.078 c -1.7835,4.13175 -2.4153,9.00711 -0.5255,13.08855 1.4425,3.11419 4.2659,5.63573 4.8083,9.02388 0.6821,4.25476 -2.4713,8.57102 -1.2916,12.71395 0.4473,1.58226 1.4928,2.9241 2.5551,4.18208 3.2316,3.81865 7.5255,7.5199 12.5127,7.22358 0.7939,-7.70441 -5.8706,-15.17959 -3.6901,-22.61004 0.7828,-2.66131 2.6166,-4.87535 3.7236,-7.41367 1.8395,-4.21003 1.5767,-9.01829 0.9114,-13.56378 -0.9673,-6.59739 -3.4161,-14.68199 -9.9576,-17.76822 -3.0024,-1.42012 -7.2683,-1.52635 -8.3362,2.33145 -0.5871,2.05749 0.7827,3.99198 0.9672,6.00474 0.2293,2.55509 -0.6876,4.49517 -1.6773,6.78748 z"
       inkscape:connector-curvature="0"
       style="opacity:0.1;fill:#000000;fill-opacity:1;stroke-width:0.55910069" />
    <path
       id="path198"
       d="m -597.30443,-508.70978 c -1.7835,4.13175 -2.4153,9.00152 -0.5255,13.08854 1.4425,3.1086 4.2659,5.63574 4.8083,9.0183 0.6821,4.25475 -2.4713,8.57101 -1.2916,12.71395 0.4473,1.58225 1.4928,2.92969 2.5551,4.18766 3.2316,3.81307 7.5255,7.51432 12.5127,7.21799 0.7939,-7.70441 -5.8706,-15.17958 -3.6901,-22.61003 0.7828,-2.66132 2.6166,-4.87536 3.7236,-7.41368 1.8395,-4.21002 1.5767,-9.01829 0.9114,-13.56378 -0.9673,-6.59739 -3.4161,-14.68198 -9.9576,-17.76822 -3.0024,-1.42011 -7.2683,-1.52075 -8.3362,2.33145 -0.5871,2.05749 0.7827,3.99198 0.9672,6.00474 0.2293,2.55509 -0.6876,4.49517 -1.6773,6.79308 z"
       inkscape:connector-curvature="0"
       style="fill:#000000;fill-opacity:1;stroke-width:0.55910069" />
    <path
       id="path200"
       d="m -595.64382,-557.69819 c 0,0 30.9742,-4.24357 31.824,2.119 0.8498,6.36256 28.2234,16.77302 28.2234,16.77302 l -6.7931,-16.77302 -12.5182,-20.79296 c 0,0 -22.9232,-1.6773 -23.9743,0 -1.0511,1.6773 -13.1612,7.2124 -13.1612,7.2124 z"
       inkscape:connector-curvature="0"
       style="opacity:0.1;fill:#000000;fill-opacity:1;stroke-width:0.55910069" />
    <path
       id="path202"
       d="m -595.64382,-558.1231 c 0,0 30.9742,-4.24358 31.824,2.11899 0.8498,6.36257 28.2234,16.77302 28.2234,16.77302 l -6.7931,-16.77302 -12.5182,-20.79296 c 0,0 -22.9232,-1.6773 -23.9743,0 -1.0511,1.67731 -13.1612,7.2124 -13.1612,7.2124 z"
       inkscape:connector-curvature="0"
       style="fill:#000000;fill-opacity:1;stroke-width:0.55910069" />
    <path
       id="path204"
       d="m -541.72422,-512.78563 a 15.095719,15.095719 0 0 1 3.1086,6.22279 c 0.5144,2.19168 0.5591,4.47281 1.0232,6.66448 1.0399,4.66849 4.1318,8.59338 7.3522,12.1269 a 13.233913,13.233913 0 0 0 3.7627,3.16451 c 1.476,0.72683 3.3546,0.87779 4.71879,0 -1.2971,-1.06788 -2.0015,-2.69487 -2.46559,-4.30508 a 22.056522,22.056522 0 0 1 -0.861,-6.93844 c 0.13979,-3.9137 1.2859,-8.04546 -0.3411,-11.61252 -0.9393,-2.06308 -2.68921,-3.62856 -4.4728,-5.0319 a 24.091649,24.091649 0 0 0 -3.992,-2.62219 c -2.6389,-1.31388 -5.6581,-1.88976 -8.57101,-2.18049 -3.7907,-0.38578 -0.47519,3.08064 0.73801,4.51194 z"
       inkscape:connector-curvature="0"
       style="opacity:0.1;fill:#000000;fill-opacity:1;stroke-width:0.55910069" />
    <path
       id="path206"
       d="m -541.72422,-513.41741 a 15.011854,15.011854 0 0 1 3.1086,6.2172 c 0.5144,2.19167 0.5591,4.4728 1.0232,6.66448 1.0399,4.66849 4.1318,8.59338 7.3522,12.12689 a 13.233913,13.233913 0 0 0 3.7627,3.16451 c 1.476,0.72683 3.3546,0.87779 4.71879,0 -1.2971,-1.06788 -2.0015,-2.68927 -2.46559,-4.30507 a 22.056522,22.056522 0 0 1 -0.861,-6.93844 c 0.13979,-3.91371 1.2859,-8.04546 -0.3411,-11.61252 -0.9393,-2.05749 -2.68921,-3.62298 -4.4728,-5.03191 a 23.772961,23.772961 0 0 0 -3.992,-2.62777 c -2.6389,-1.31389 -5.6581,-1.88976 -8.57101,-2.1805 -3.7907,-0.38018 -0.47519,3.08624 0.73801,4.52313 z"
       inkscape:connector-curvature="0"
       style="fill:#000000;fill-opacity:1;stroke-width:0.55910069" />
    <path
       id="path50"
       d="m -577.23551,-525.60212 c 0,0 0.75475,15.84966 -3.77373,21.13289 -4.52848,5.28323 -9.05695,32.45409 12.83069,33.20884 21.88763,0.75474 19.6234,-22.64239 19.6234,-22.64239 l -4.52848,-12.83069 c 0,0 -6.79271,-9.8117 -4.52847,-18.86865 z"
       inkscape:connector-curvature="0"
       style="fill:#f7c4a7;fill-opacity:1;stroke-width:0.62580103" />
    <path
       id="path46"
       d="m -551.57412,-503.71448 12.07594,-15.09495 9.05695,-30.94461 -34.71833,-36.98256 c 0,0 -7.54746,-28.68036 -0.75471,-27.17086 6.79274,1.50949 8.30221,22.64238 8.30221,22.64238 l 43.77527,33.96358 c 0,0 -4.52848,47.54899 -17.35916,64.15343 l -9.8117,30.94461 z"
       inkscape:connector-curvature="0"
       style="fill:#f7c4a7;fill-opacity:1;stroke-width:0.62580103" />
    <path
       id="path44"
       d="m -584.78296,-503.71448 -12.07594,-15.09495 -9.05695,-30.94461 34.71833,-36.98256 c 0,0 7.54746,-28.68036 0.75474,-27.17086 -6.79271,1.50949 -8.3022,22.64238 -8.3022,22.64238 l -43.77528,33.96358 c 0,0 4.52847,47.54899 17.35916,64.15343 l 9.8117,30.94461 z"
       inkscape:connector-curvature="0"
       style="fill:#f7c4a7;fill-opacity:1;stroke-width:0.62580103" />
    <path
       id="path60"
       d="m -567.29355,-493.89237 -11.77686,-14.23288 -7.97678,3.65602 -8.30221,26.41612 c 0,0 -6.79271,12.83068 1.50951,26.41614 0,0 1.5095,9.05696 -0.75471,11.32119 -2.26421,2.26424 -3.01899,16.60442 -3.01899,16.60442 l -9.8117,18.86865 c 0,0 55.85122,9.8117 72.45563,-3.77373 0,0 -8.71297,-32.12307 -3.42975,-41.93477 5.28323,-9.8117 6.03797,-24.85319 0,-31.64591 -6.03797,-6.79272 -12.41992,-24.53632 -12.41992,-24.53632 l -3.65516,-2.33768 z"
       inkscape:connector-curvature="0"
       style="fill:#cfcce0;stroke-width:0.62580103" />
  </g>
</svg>
